<?xml version="1.0" standalone="no"?>
<!DOCTYPE svg PUBLIC "-//W3C//DTD SVG 20010904//EN"
 "http://www.w3.org/TR/2001/REC-SVG-20010904/DTD/svg10.dtd">
<svg version="1.0" xmlns="http://www.w3.org/2000/svg"
 width="1254.000000pt" height="1254.000000pt" viewBox="0 0 1254.000000 1254.000000"
 preserveAspectRatio="xMidYMid meet">

<g transform="translate(0.000000,1254.000000) scale(0.100000,-0.100000)"
fill="#000000" stroke="none">
<path d="M6197 10659 c-135 -32 -241 -154 -254 -293 -10 -113 42 -230 132
-295 l45 -32 0 -107 0 -107 -53 -28 c-73 -38 -152 -119 -189 -194 l-31 -63
-988 0 c-545 0 -989 4 -989 9 0 4 -18 29 -40 54 -111 126 -296 132 -416 13
-60 -61 -84 -121 -84 -215 0 -88 30 -152 99 -212 l52 -46 -199 -444 c-110
-244 -272 -604 -360 -799 -88 -195 -199 -440 -246 -545 l-85 -190 -71 -3 -71
-3 7 -37 c11 -68 71 -230 105 -288 127 -215 420 -390 774 -464 210 -44 532
-36 745 19 380 97 635 334 721 668 27 108 30 103 -52 103 l-70 0 -16 38 c-8
20 -99 222 -200 447 -102 226 -214 473 -248 550 -126 282 -377 842 -406 905
l-30 65 51 53 50 52 984 0 985 0 25 -55 c29 -63 100 -143 162 -182 l44 -28 -2
-1620 -3 -1620 -202 -5 c-220 -5 -228 -7 -277 -74 -19 -25 -21 -42 -21 -184
l0 -157 -162 -5 c-144 -4 -165 -7 -190 -26 -60 -45 -71 -99 -65 -322 l2 -82
1108 2 1107 3 3 130 c4 160 -1 186 -40 231 -52 59 -71 64 -233 64 l-145 0 0
151 c0 169 -9 203 -64 242 -29 21 -44 22 -231 27 l-200 5 -3 1622 -2 1621 44
26 c58 34 129 114 161 182 l26 54 989 0 c581 0 990 -4 990 -9 0 -5 20 -29 45
-53 l45 -44 -79 -175 c-43 -96 -156 -347 -251 -559 -95 -212 -215 -477 -265
-590 -51 -113 -140 -311 -198 -440 l-106 -235 -71 -3 c-38 -2 -70 -7 -70 -11
0 -69 61 -234 126 -337 173 -279 604 -473 1054 -474 407 -1 846 173 1020 404
71 93 142 259 164 378 l7 37 -72 3 -71 3 -45 100 c-150 335 -282 629 -528
1170 -153 336 -286 634 -298 663 l-20 53 40 34 c93 80 139 239 96 336 -66 150
-246 221 -388 155 -46 -21 -135 -105 -135 -127 0 -5 -445 -9 -989 -9 l-990 0
-37 70 c-42 80 -117 155 -188 189 l-46 21 0 109 0 109 38 28 c53 41 78 71 109
134 39 77 39 190 1 270 -47 101 -129 166 -236 189 -60 13 -82 13 -135 0z
m-2506 -1626 c51 -110 528 -1169 805 -1784 19 -42 34 -79 34 -83 0 -3 -403 -6
-895 -6 -492 0 -895 3 -895 8 0 8 35 86 325 727 92 204 187 413 210 465 61
136 267 591 309 683 22 48 41 77 51 77 10 0 31 -32 56 -87z m5431 -358 c109
-242 216 -478 237 -525 75 -159 429 -949 436 -969 l6 -21 -895 0 c-493 0 -896
4 -896 9 0 4 15 41 34 82 19 41 75 166 126 279 131 290 186 412 230 510 140
311 389 864 433 963 42 95 56 117 71 115 15 -2 63 -98 218 -443z"/>
<path d="M3075 5140 c-109 -5 -152 -11 -158 -21 -4 -8 -52 -95 -105 -194 l-97
-180 -208 -3 c-204 -2 -208 -3 -217 -25 -5 -12 -119 -301 -254 -642 -134 -341
-269 -683 -300 -760 -31 -76 -56 -152 -56 -167 0 -42 24 -92 55 -116 50 -40
84 -39 290 11 880 213 1737 278 2465 186 413 -52 776 -147 1030 -272 130 -63
220 -144 220 -199 0 -45 30 -91 73 -111 31 -15 84 -17 459 -17 404 0 424 1
456 20 38 23 72 75 72 110 0 79 128 170 373 264 621 241 1501 307 2447 186
292 -38 600 -96 902 -169 91 -23 178 -41 193 -41 65 0 145 80 145 146 0 10
-61 172 -135 359 -74 187 -213 540 -309 785 l-175 445 -209 3 -208 2 -75 137
c-40 75 -86 163 -100 194 l-27 57 -98 8 c-169 15 -593 9 -756 -10 -607 -70
-1137 -243 -1612 -526 -324 -193 -633 -458 -815 -700 -35 -47 -67 -85 -71 -85
-4 0 -35 37 -69 82 -138 183 -378 407 -606 564 -525 364 -1135 586 -1815 664
-166 19 -504 26 -705 15z m445 -170 c913 -51 1734 -383 2323 -941 167 -157
327 -365 395 -511 26 -55 42 -73 42 -46 0 7 23 53 51 102 296 521 951 988
1719 1228 398 124 852 184 1283 170 l168 -5 38 -66 c109 -189 733 -1333 729
-1336 -2 -1 -59 11 -128 26 -249 57 -613 111 -940 141 -207 19 -759 16 -960
-5 -787 -84 -1380 -288 -1804 -621 l-59 -46 -110 0 -109 0 -47 38 c-471 387
-1277 626 -2181 649 -465 11 -1062 -49 -1530 -156 -69 -15 -127 -27 -128 -25
-6 5 734 1360 759 1390 8 10 49 14 147 17 76 1 144 4 152 5 8 1 94 -3 190 -8z"/>
</g>
</svg>
